<svg width="131" height="150" viewBox="0 0 131 150" fill="none" xmlns="http://www.w3.org/2000/svg">
<path fill-rule="evenodd" clip-rule="evenodd" d="M130.973 107.438C130.936 113.663 127.738 115.051 127.738 115.051C127.738 115.051 72.5419 147.294 68.9537 149.314C67.6137 149.896 66.4412 150.039 65.5002 149.991C64.5591 150.039 63.3864 149.896 62.0461 149.314C58.458 147.294 3.26206 115.051 3.26206 115.051C3.26206 115.051 0.0638622 113.663 0.0267915 107.438C-0.00774007 101.652 0.0267971 42.1749 0.0267971 42.1749C0.0267971 42.1749 -0.656723 36.6788 4.88044 34.0175C10.5298 30.7977 61.5068 0.842441 61.5068 0.842441C61.5068 0.842441 63.2332 -0.103639 65.4995 0.00945793C67.7662 -0.103897 69.493 0.842403 69.493 0.842403C69.493 0.842403 120.47 30.7977 126.119 34.0175C131.657 36.6788 130.973 42.1748 130.973 42.1748C130.973 42.1748 131.008 101.652 130.973 107.438ZM65.5021 16.3034C66.2944 16.3107 66.9833 16.4719 67.4773 16.633C67.7232 16.7214 67.9716 16.8301 68.2206 16.9626L80.6235 24.1865C89.598 29.4382 101.295 36.2781 107.934 40.1409L68.7689 64.1231C68.7689 64.1231 65.5453 66.2772 65.5453 71.188V83.6885L116.474 52.4909C116.46 64.7657 116.484 95.9296 116.489 101.615C116.333 103.122 115.916 104.175 115.467 104.898C115.28 105.106 115.058 105.307 114.796 105.492C113.14 106.656 67.7966 133.157 67.7966 133.157C67.7966 133.157 67.7268 133.202 67.594 133.266C66.8093 133.569 66.1035 133.683 65.4989 133.693C64.895 133.683 64.1901 133.569 63.4066 133.266C63.2733 133.202 63.2033 133.157 63.2033 133.157C63.2033 133.157 17.8594 106.656 16.204 105.491C15.9415 105.307 15.7197 105.106 15.5323 104.898C15.0842 104.175 14.6672 103.122 14.5107 101.615C14.5154 95.9298 14.5402 64.7658 14.5257 52.4909L65.4546 83.6885V71.1881C65.4546 66.2773 62.231 64.1232 62.231 64.1232L23.0661 40.1409C29.7119 36.2742 41.4258 29.4242 50.4039 24.1704L62.7793 16.9625C63.0274 16.8305 63.275 16.722 63.5202 16.6339C64.0153 16.4722 64.7066 16.3102 65.5021 16.3034Z" fill="#38ABBE"/>
</svg>
